<svg fill-rule="evenodd" clip-rule="evenodd" height="1501" width="1024" xmlns="http://www.w3.org/2000/svg" xmlns:xlink="http://www.w3.org/1999/xlink" version="1.1" x="0px" y="0px" viewBox="0 0 175.526 257.395"><g><path d="M100.306,32.402c0-33.41-25.649-32.398-25.649-32.398S49.008-1.008,49.008,32.402c0,0-7.762,6.412-1.012,8.774 c0.549,0.192,1.335,0.367,2.284,0.527c0.485-5.143,2.567-9.825,5.742-13.551c0.052,0.213,0.129,0.423,0.215,0.632 c0.184,0.444,0.449,0.875,0.779,1.293c2.634,3.338,9.71,5.732,18.052,5.732c7.924,0,14.723-2.157,17.642-5.234 c0.522-0.551,0.912-1.131,1.171-1.733c0.008-0.02,0.012-0.041,0.021-0.06c0.004,0.033,0.006,0.066,0.01,0.099 c2.838,3.599,4.691,8.007,5.146,12.819c0.939-0.16,1.718-0.333,2.262-0.524C108.068,38.814,100.306,32.402,100.306,32.402z"></path><path d="M47.736,115.289c0.464,0.995,0.98,2.004,1.57,3.035c0.875-0.873,1.566-1.707,1.963-2.453 C50.505,115.628,49.263,115.44,47.736,115.289z"></path><path d="M60.981,159.208c-2.261-1.735-4.404-3.461-6.44-5.182c-2.13-1.801-4.141-3.595-6.032-5.387 c-0.242-0.229-0.476-0.459-0.714-0.688c0.13,0.613,0.338,1.196,0.604,1.746l-9.721,94.063c-0.702,6.794,4.235,12.867,11.027,13.568 c6.791,0.702,12.867-4.232,13.57-11.026l8.933-86.455c-1.53,0.921-3.293,1.43-5.146,1.43 C64.844,161.277,62.742,160.561,60.981,159.208z"></path><path d="M57.362,128.954c-0.033,0.014-0.074,0.035-0.109,0.051c2.266,2.495,4.837,5.022,7.703,7.576 c0.308-1.089,0.591-2.075,0.82-2.868C63.11,132.394,59.199,130.366,57.362,128.954z"></path><path d="M89.854,134.881l-1.855-0.951l1.026-1.814l0.121-0.215l-1.399-0.792c-0.791,0.627-1.571,1.022-2.363,1.201 c-1.668,0.777-5.004,9.125-7.806,19.277c-0.226,0.817-0.447,1.646-0.664,2.483h0.921l9.53,92.232 c0.703,6.795,6.779,11.728,13.57,11.026c6.792-0.701,11.729-6.775,11.027-13.568l-10.248-99.168v-3.649l-0.398-0.203 L89.854,134.881z"></path><path d="M75.069,38.527c-8.6,0-17.273-2.614-18.68-7.616c-2.281,3.175-3.756,6.965-4.125,11.077 c-0.059,0.67-0.096,1.348-0.096,2.033c0,12.427,10.074,22.5,22.501,22.5c12.426,0,22.5-10.073,22.5-22.5 c0-0.687-0.036-1.365-0.096-2.036c-0.34-3.782-1.614-7.292-3.592-10.301C91.442,36.183,83.216,38.527,75.069,38.527z"></path><path d="M28.667,88.737l-17.924-9.589c0,0-7.192,11.406-10.6,24.588c-1.693,6.551,11.84,8.068,25.706,8.65 c-0.496-2.582-0.75-5.151-0.747-7.701C25.094,98.267,26.696,92.91,28.667,88.737z"></path><path d="M149.086,152.473l-5.002-3.119l-26.512-16.531l-15.858-9.889l-3.839-2.394l-0.396,0.701l-0.71,1.253l-4.12-2.333 c0.371-0.79,0.711-1.548,1.012-2.242c0.896-2.067,1.444-3.554,1.444-3.554L68.421,97.051l-10.153,7.521l-10.644-5.694l-1.271-0.68 c-0.822,2.041-1.246,4.208-1.248,6.491c0.005,2.726,0.593,5.55,1.74,8.516c0.266,0.023,0.525,0.047,0.778,0.072 c3.865,0.382,6.221,1.028,5.916,2.254c-0.358,1.44-1.563,3.014-3.171,4.566c0.015,0.024,0.027,0.046,0.042,0.07 c0.542,0.856,1.129,1.718,1.75,2.585c1.116,1.555,2.358,3.127,3.726,4.712c1.113-0.58,1.94-0.823,2.235-0.496 c1.357,1.507,10.047,5.688,10.047,5.688s-0.68,2.305-1.542,5.389c2.042,1.756,4.214,3.522,6.53,5.299 c0.245,0.188,0.475,0.388,0.696,0.594c1.258,1.162,2.158,2.587,2.679,4.128c0.163-0.552,0.332-1.114,0.508-1.686 c2.172-7.079,5.261-15.419,7.906-16.02c0.824-0.185,1.673-0.812,2.515-1.709l4.412,2.498l-1.106,1.953l10.305,5.268l0.643,0.328 l42.79,21.871l0.869-1.535l27.309,15.457l2.844-5.023l-27.309-15.457L149.086,152.473z"></path><path d="M31.333,87.893c-0.313,0.582-0.614,1.176-0.9,1.788c-2.025,4.332-3.337,9.397-3.329,15.007 c-0.003,2.515,0.263,5.114,0.809,7.778c0.138,0.668,0.295,1.341,0.469,2.017c1.151,4.497,3.106,9.162,5.963,13.915 c0.282,0.47,0.568,0.939,0.868,1.41c0.37,0.582,0.756,1.167,1.152,1.753c2.961,4.37,6.676,8.836,11.259,13.413 c0.374,0.373,0.762,0.749,1.147,1.124c2.693,2.62,5.664,5.275,8.951,7.972c1.434,1.177,2.925,2.36,4.478,3.553 c1.451,1.114,3.164,1.654,4.863,1.654c1.348,0,2.682-0.352,3.876-1.012c0.553-0.306,1.072-0.68,1.55-1.122 c0.261-0.241,0.509-0.501,0.741-0.783c0.061-0.073,0.127-0.138,0.186-0.214c0.497-0.648,0.879-1.349,1.15-2.076 c0.926-2.484,0.553-5.289-0.99-7.447c-0.448-0.626-0.993-1.199-1.636-1.693c-2.108-1.616-4.07-3.202-5.902-4.757 c-0.574-0.487-1.132-0.972-1.68-1.452c-3.458-3.036-6.399-5.945-8.885-8.713c-0.459-0.512-0.903-1.018-1.332-1.519 c-1.054-1.233-2.019-2.438-2.896-3.609c-0.879-1.175-1.673-2.319-2.384-3.429c-0.046-0.071-0.096-0.144-0.141-0.215 c-0.326-0.516-0.63-1.022-0.922-1.522c-0.061-0.103-0.117-0.204-0.176-0.306c-0.865-1.505-1.585-2.94-2.172-4.306 c-0.302-0.703-0.571-1.389-0.808-2.056c-1.118-3.158-1.534-5.927-1.54-8.358c0.004-2.777,0.561-5.248,1.475-7.44 c0.26-0.624,0.549-1.227,0.864-1.806c0.637-1.172,1.374-2.254,2.181-3.246c0.259-0.318,0.525-0.626,0.797-0.927l1.884,0.904 c-1.062,1.113-1.942,2.29-2.681,3.513v0.922l10.471,5.602l9.136-6.769l1.115-0.825l1.165,0.756l26.684,17.314l1.342,0.871 l-0.555,1.5c-0.032,0.088-0.648,1.747-1.632,3.991c-0.04,0.093-0.077,0.18-0.119,0.274l0.786,0.445l0.051-0.092l0.068-0.123 l1.028-1.816l1.771,1.104l2.78,1.733v-10.822c3.582,5.979,7.7,12.337,12.311,18.499l31.428,19.597 c2.395-3.422,1.761-8.158-1.543-10.811c-11.281-8.987-22.195-24.613-29.876-37.881c-3.864-6.634-6.976-12.681-9.104-17.041 c-1.066-2.181-1.887-3.94-2.437-5.143c-0.274-0.602-0.48-1.063-0.616-1.37c-0.137-0.305-0.188-0.431-0.19-0.431 c-1.001-2.322-2.972-3.923-5.234-4.544c-0.775-0.261-1.603-0.409-2.466-0.409H55.35c-0.673,0-1.322,0.095-1.944,0.257 c-2.779,0.344-5.028,1.32-7.486,2.599c-4.234,2.323-8.645,5.967-12.279,11.103c-0.063,0.088-0.13,0.169-0.192,0.259 C32.697,85.518,31.989,86.674,31.333,87.893z"></path></g></svg>